<svg id="Livello_1" data-name="Livello 1" xmlns="http://www.w3.org/2000/svg" xmlns:xlink="http://www.w3.org/1999/xlink" viewBox="0 0 414.76 153.49"><defs><style>.cls-1{fill:none;}.cls-2{clip-path:url(#clip-path);}.cls-3{fill:#11b0ef;}.cls-4{fill:#0631cc;}</style><clipPath id="clip-path" transform="translate(0 0)"><rect class="cls-1" width="414.76" height="153.49"/></clipPath></defs><title>Risorsa 1@CLEA</title><g class="cls-2"><path class="cls-3" d="M59.14,37A59.88,59.88,0,0,0,47.49,57.36,58.47,58.47,0,0,0,44.63,80a56.72,56.72,0,0,0,5.91,21.37,55.3,55.3,0,0,0,13.27,16.95L51.75,130.37a70.63,70.63,0,0,1-13.92-23.74A68.85,68.85,0,0,1,34.19,80a67,67,0,0,1,6.7-25.37A65.6,65.6,0,0,1,56.42,34.29Z" transform="translate(0 0)"/><path class="cls-4" d="M44.77,16.08A91.38,91.38,0,0,0,23,44.51,93.84,93.84,0,0,0,13.69,80a96.14,96.14,0,0,0,5.1,37.24,98.27,98.27,0,0,0,19.47,33.19l-3.06,3.06a105.1,105.1,0,0,1-24.67-32.83A107.52,107.52,0,0,1,.16,80,109.76,109.76,0,0,1,6.28,37.58,112,112,0,0,1,28.69,0Z" transform="translate(0 0)"/><path class="cls-3" d="M117.88,79.88A6.92,6.92,0,1,1,111,73a6.91,6.91,0,0,1,6.91,6.92" transform="translate(0 0)"/><rect class="cls-4" x="236.09" y="72.89" width="57.88" height="14.21"/><path class="cls-4" d="M111,122.78a42.9,42.9,0,1,1,37.15-64.36l-12.3,7.11a28.7,28.7,0,1,0,0,28.7l12.3,7.11A43,43,0,0,1,111,122.78" transform="translate(0 0)"/><polygon class="cls-4" points="217.73 122.64 165.87 122.64 165.87 36.9 180.07 36.9 180.07 108.43 217.73 108.43 217.73 122.64"/><rect class="cls-4" x="236.09" y="36.98" width="57.88" height="14.21"/><rect class="cls-4" x="236.09" y="108.43" width="57.88" height="14.21"/><path class="cls-4" d="M361.11,36.93A7.11,7.11,0,0,0,355,40.48l-47.5,82.26h16.41l37.24-64.5,37.25,64.5h16.4L367.27,40.48a7.11,7.11,0,0,0-6.16-3.55" transform="translate(0 0)"/></g></svg>