<svg id="Livello_1" data-name="Livello 1" xmlns="http://www.w3.org/2000/svg" xmlns:xlink="http://www.w3.org/1999/xlink" viewBox="0 0 328.36 121.52"><defs><style>.cls-1{fill:none;}.cls-2{clip-path:url(#clip-path);}.cls-3{fill:#11b0ef;}.cls-4{fill:#fff;}</style><clipPath id="clip-path" transform="translate(-53.26 -87.64)"><rect class="cls-1" x="-81.06" y="-56" width="567.58" height="392.09"/></clipPath></defs><title>Risorsa 2@CLEA bianco</title><g class="cls-2"><path class="cls-3" d="M100.08,116.93a47.6,47.6,0,0,0-9.23,16.12A46.37,46.37,0,0,0,88.59,151a44.87,44.87,0,0,0,4.68,16.92,43.63,43.63,0,0,0,10.51,13.42l-9.55,9.54a55.74,55.74,0,0,1-11-18.8A54.36,54.36,0,0,1,80.33,151a52.92,52.92,0,0,1,5.3-20.08,52,52,0,0,1,12.3-16.11Z" transform="translate(-53.26 -87.64)"/><path class="cls-4" d="M88.7,100.36a72.57,72.57,0,0,0-17.2,22.52A74.14,74.14,0,0,0,64.1,151a76.09,76.09,0,0,0,4,29.48,78,78,0,0,0,15.42,26.28l-2.42,2.42a83,83,0,0,1-19.53-26A85.16,85.16,0,0,1,53.38,151a87.06,87.06,0,0,1,4.85-33.58A88.74,88.74,0,0,1,76,87.64Z" transform="translate(-53.26 -87.64)"/><path class="cls-3" d="M146.59,150.88a5.48,5.48,0,1,1-5.48-5.48,5.48,5.48,0,0,1,5.48,5.48" transform="translate(-53.26 -87.64)"/><rect class="cls-4" x="186.91" y="57.71" width="45.83" height="11.25"/><path class="cls-4" d="M141.11,184.84a34,34,0,1,1,29.42-51l-9.74,5.63a22.72,22.72,0,1,0,0,22.71l9.74,5.64a34.09,34.09,0,0,1-29.42,17" transform="translate(-53.26 -87.64)"/><polygon class="cls-4" points="172.37 97.09 131.31 97.09 131.31 29.21 142.56 29.21 142.56 85.84 172.37 85.84 172.37 97.09"/><rect class="cls-4" x="186.91" y="29.27" width="45.83" height="11.25"/><rect class="cls-4" x="186.91" y="85.84" width="45.83" height="11.25"/><path class="cls-4" d="M339.15,116.87a5.61,5.61,0,0,0-4.87,2.81l-37.61,65.13h13l29.49-51.07,29.48,51.07h13L344,119.68a5.63,5.63,0,0,0-4.87-2.81" transform="translate(-53.26 -87.64)"/></g></svg>